<svg width="24" height="24" viewBox="0 0 24 24" fill="none" xmlns="http://www.w3.org/2000/svg">
<g clip-path="url(#clip0)">
<path fill-rule="evenodd" clip-rule="evenodd" d="M5.86959 3.55979C7.44846 2.9753 9.15963 2.84538 10.8086 3.18481C12.4577 3.52424 13.9784 4.3194 15.1981 5.47994C16.2278 6.45975 17.0081 7.66682 17.4794 9H18.0001C19.5914 9 21.1175 9.63214 22.2428 10.7574C23.368 11.8826 24.0001 13.4087 24.0001 15C24.0001 16.5913 23.368 18.1174 22.2428 19.2426C21.1175 20.3679 19.5914 21 18.0001 21H11.5001C9.22534 21 7.76523 20.8748 6.69268 20.6379C5.58095 20.3923 4.92016 20.033 4.26835 19.6588C4.25807 19.6529 4.24788 19.6468 4.23781 19.6405C2.80854 18.7508 1.65749 17.478 0.915454 15.9667C0.173421 14.4555 -0.129841 12.7664 0.0401273 11.0914C0.210096 9.41641 0.846479 7.82268 1.87697 6.4913C2.90745 5.15993 4.29072 4.14429 5.86959 3.55979ZM10.4054 5.14374C9.12285 4.87974 7.79195 4.98079 6.56394 5.43539C5.33593 5.89 4.26005 6.67994 3.45856 7.71546C2.65707 8.75098 2.16211 9.99054 2.02991 11.2933C1.89771 12.5961 2.13358 13.9098 2.71072 15.0852C3.28531 16.2554 4.17523 17.2419 5.28009 17.9334C5.85457 18.263 6.30984 18.5051 7.12409 18.685C7.98499 18.8752 9.27488 19 11.5001 19H18.0001C19.061 19 20.0784 18.5786 20.8285 17.8284C21.5787 17.0783 22.0001 16.0609 22.0001 15C22.0001 13.9391 21.5787 12.9217 20.8285 12.1716C20.0784 11.4214 19.061 11 18.0001 11H16.7401C16.2841 11 15.8859 10.6915 15.7719 10.25C15.4445 8.98212 14.7681 7.83149 13.8194 6.92885C12.8708 6.0262 11.688 5.40774 10.4054 5.14374Z" fill="#BFBFBF"/>
</g>
<defs>
<clipPath id="clip0">
<path d="M0 0H24V24H0V0Z" fill="white"/>
</clipPath>
</defs>
</svg>
