<svg width="24" height="24" viewBox="0 0 24 24" fill="none" xmlns="http://www.w3.org/2000/svg">
<g clip-path="url(#clip0)">
<path fill-rule="evenodd" clip-rule="evenodd" d="M12.263 1.61511C10.9342 1.0971 9.50129 0.90231 8.08241 1.04679C6.66353 1.19127 5.29931 1.67089 4.10218 2.44611C2.90505 3.22133 1.90929 4.26996 1.19699 5.50556C0.484683 6.74116 0.0762262 8.12836 0.00528293 9.55281C-0.0656602 10.9773 0.202942 12.3982 0.78895 13.6984C1.37496 14.9987 2.26159 16.1411 3.37577 17.0314C3.80722 17.3762 4.43648 17.3059 4.78125 16.8745C5.12602 16.443 5.05575 15.8138 4.6243 15.469C3.75771 14.7765 3.06811 13.888 2.61233 12.8767C2.15654 11.8654 1.94763 10.7602 2.00281 9.65229C2.05799 8.54439 2.37567 7.46546 2.92969 6.50443C3.4837 5.54341 4.25818 4.72781 5.18928 4.12486C6.12038 3.52191 7.18145 3.14887 8.28502 3.0365C9.38859 2.92413 10.5031 3.07563 11.5366 3.47853C12.5701 3.88143 13.4931 4.52418 14.2294 5.35381C14.9658 6.18344 15.4944 7.17619 15.7718 8.25024C15.8858 8.69174 16.284 9.0002 16.74 9.0002H17.9992C18.9172 9.00137 19.8069 9.31825 20.5189 9.89767C21.231 10.4772 21.7221 11.284 21.9097 12.1827C22.0974 13.0815 21.9701 14.0174 21.5493 14.8334C21.1285 15.6494 20.4399 16.2959 19.5989 16.6642C19.093 16.8858 18.8625 17.4755 19.084 17.9814C19.3056 18.4873 19.8953 18.7178 20.4012 18.4962C21.6627 17.9437 22.6957 16.9741 23.3269 15.7501C23.9581 14.526 24.149 13.1221 23.8675 11.774C23.5861 10.4259 22.8494 9.21566 21.7813 8.3464C20.7131 7.47715 19.3784 7.00182 18.0012 7.0002H17.4793C17.0929 5.90727 16.498 4.89686 15.7252 4.02619C14.7785 2.95952 13.5918 2.13313 12.263 1.61511ZM13.8321 11.5549C14.1384 11.0954 14.0143 10.4745 13.5547 10.1682C13.0952 9.8618 12.4743 9.98597 12.168 10.4455L8.16799 16.4455C7.96341 16.7524 7.94434 17.1469 8.11836 17.4721C8.29238 17.7972 8.63124 18.0002 9.00004 18.0002H13.1315L10.168 22.4455C9.86163 22.905 9.98581 23.5259 10.4453 23.8323C10.9049 24.1386 11.5257 24.0144 11.8321 23.5549L15.8321 17.5549C16.0367 17.248 16.0557 16.8535 15.8817 16.5283C15.7077 16.2032 15.3688 16.0002 15 16.0002H10.8686L13.8321 11.5549Z" fill="#BFBFBF"/>
</g>
<defs>
<clipPath id="clip0">
<path d="M0 0H24V24H0V0Z" fill="white"/>
</clipPath>
</defs>
</svg>
