<svg width="24" height="24" viewBox="0 0 24 24" fill="none" xmlns="http://www.w3.org/2000/svg">
<path fill-rule="evenodd" clip-rule="evenodd" d="M11.4221 7L13.6453 3.15005C16.0739 3.59871 18.1607 5.02241 19.4844 7H14.3311C14.3164 6.99967 14.3017 6.99967 14.287 7H11.4221ZM7.38016 10.0001L8.81539 7.51469C8.82063 7.50528 8.82601 7.49596 8.83153 7.48674L11.4115 3.01893C8.91168 3.18028 6.68979 4.36225 5.15827 6.15245L7.38016 10.0001ZM6.52789 12.5236L7.95791 15H3.51212C3.18046 14.0617 3 13.0519 3 12C3 10.5705 3.33327 9.21886 3.92635 8.01851L6.50149 12.4779C6.50987 12.4934 6.51868 12.5086 6.52789 12.5236ZM12.5779 17H9.70815C9.69674 17.0002 9.68534 17.0002 9.67395 17H4.51555C5.83932 18.9776 7.92609 20.4013 10.3547 20.85L12.5779 17ZM13.7329 15H10.2674L8.53491 11.9998L10.2672 9H13.7327L15.4652 12.0001L13.7329 15ZM15.1692 16.5121C15.1742 16.5036 15.1792 16.4951 15.1839 16.4865L16.6199 13.9998L18.8418 17.8474C17.3103 19.6377 15.0884 20.8197 12.5885 20.9811L15.1692 16.5121ZM10.8362 22.9392C11.2187 22.9794 11.6069 23 12 23C15.5963 23 18.7895 21.2742 20.7966 18.6055C20.8374 18.5599 20.8734 18.5109 20.9047 18.4594C22.2227 16.6456 23 14.4136 23 12C23 10.4585 22.6829 8.99109 22.1104 7.65938C22.0958 7.61911 22.0787 7.58004 22.0593 7.54236C20.5164 4.06581 17.2242 1.53796 13.2998 1.07599C13.2541 1.06764 13.2081 1.06256 13.1622 1.06066C12.7803 1.02056 12.3925 1 12 1C8.40362 1 5.21035 2.72589 3.20325 5.3946C3.16269 5.44011 3.12673 5.48891 3.09557 5.54025C1.77744 7.35409 1 9.58626 1 12C1 13.5416 1.31714 15.0092 1.88974 16.341C1.90424 16.381 1.92123 16.4198 1.9405 16.4572C3.48353 19.9345 6.77663 22.4628 10.702 22.9242C10.7466 22.9323 10.7914 22.9372 10.8362 22.9392ZM17.4986 11.5219L20.0737 15.9813C20.6668 14.781 21 13.4294 21 12C21 10.9481 20.8195 9.93834 20.4879 9H16.0422L17.4722 11.4763C17.4814 11.4913 17.4902 11.5065 17.4986 11.5219Z" fill="#9BCDD9"/>
</svg>
