<svg width="24" height="24" viewBox="0 0 24 24" fill="none" xmlns="http://www.w3.org/2000/svg">
<path fill-rule="evenodd" clip-rule="evenodd" d="M13 1.5C13 0.947715 12.5523 0.5 12 0.5C11.4477 0.5 11 0.947715 11 1.5V6.58579L8.70711 4.29289C8.31658 3.90237 7.68342 3.90237 7.29289 4.29289C6.90237 4.68342 6.90237 5.31658 7.29289 5.70711L11.2929 9.70711C11.6834 10.0976 12.3166 10.0976 12.7071 9.70711L16.7071 5.70711C17.0976 5.31658 17.0976 4.68342 16.7071 4.29289C16.3166 3.90237 15.6834 3.90237 15.2929 4.29289L13 6.58579V1.5ZM12 12C10.4087 12 8.88258 12.6321 7.75736 13.7574C6.63214 14.8826 6 16.4087 6 18C6 18.5523 6.44772 19 7 19C7.55228 19 8 18.5523 8 18C8 16.9391 8.42143 15.9217 9.17157 15.1716C9.92172 14.4214 10.9391 14 12 14C13.0609 14 14.0783 14.4214 14.8284 15.1716C15.5786 15.9217 16 16.9391 16 18C16 18.5523 16.4477 19 17 19C17.5523 19 18 18.5523 18 18C18 16.4087 17.3679 14.8826 16.2426 13.7574C15.1174 12.6321 13.5913 12 12 12ZM3.51289 9.51289C3.90342 9.12237 4.53658 9.12237 4.92711 9.51289L6.34711 10.9329C6.73763 11.3234 6.73763 11.9566 6.34711 12.3471C5.95658 12.7376 5.32342 12.7376 4.93289 12.3471L3.51289 10.9271C3.12237 10.5366 3.12237 9.90342 3.51289 9.51289ZM1 17C0.447715 17 0 17.4477 0 18C0 18.5523 0.447715 19 1 19H3C3.55228 19 4 18.5523 4 18C4 17.4477 3.55228 17 3 17H1ZM20 18C20 17.4477 20.4477 17 21 17H23C23.5523 17 24 17.4477 24 18C24 18.5523 23.5523 19 23 19H21C20.4477 19 20 18.5523 20 18ZM20.4871 9.51289C20.8776 9.90342 20.8776 10.5366 20.4871 10.9271L19.0671 12.3471C18.6766 12.7376 18.0434 12.7376 17.6529 12.3471C17.2624 11.9566 17.2624 11.3234 17.6529 10.9329L19.0729 9.51289C19.4634 9.12237 20.0966 9.12237 20.4871 9.51289ZM1 21C0.447715 21 0 21.4477 0 22C0 22.5523 0.447715 23 1 23H23C23.5523 23 24 22.5523 24 22C24 21.4477 23.5523 21 23 21H1Z" fill="#BFBFBF"/>
</svg>
