<?xml version="1.0" encoding="utf-8"?>
<!-- Generator: Adobe Illustrator 21.0.0, SVG Export Plug-In . SVG Version: 6.00 Build 0)  -->
<svg version="1.1" id="Layer_1" xmlns="http://www.w3.org/2000/svg" xmlns:xlink="http://www.w3.org/1999/xlink" x="0px" y="0px"
	 viewBox="0 0 24 24" style="enable-background:new 0 0 24 24;" xml:space="preserve">
<path id="Shape" d="M12.3,0.6C10.9,0.1,9.5-0.1,8.1,0s-2.8,0.6-4,1.4C2.9,2.2,1.9,3.3,1.2,4.5C0.5,5.7,0.1,7.1,0,8.6
	c-0.1,1.4,0.2,2.8,0.8,4.1C1.4,14,2.3,15.1,3.4,16c0.4,0.3,1.1,0.3,1.4-0.2c0.3-0.4,0.3-1.1-0.2-1.4c-0.9-0.7-1.6-1.6-2-2.6
	c-0.5-1-0.7-2.1-0.6-3.2c0.1-1.1,0.4-2.2,0.9-3.1c0.6-1,1.3-1.8,2.3-2.4s2-1,3.1-1.1s2.2,0,3.3,0.4s2,1,2.7,1.9
	c0.7,0.8,1.3,1.8,1.5,2.9c0.1,0.4,0.5,0.7,1,0.7H18c0.9,0,1.8,0.3,2.5,0.9c0.7,0.6,1.2,1.4,1.4,2.3c0.2,0.9,0.1,1.8-0.4,2.7
	c-0.4,0.8-1.1,1.5-2,1.8c-0.5,0.2-0.7,0.8-0.5,1.3c0.2,0.5,0.8,0.7,1.3,0.5c1.3-0.6,2.3-1.5,2.9-2.7c0.6-1.2,0.8-2.6,0.5-4
	c-0.3-1.3-1-2.6-2.1-3.4C20.7,6.5,19.4,6,18,6h-0.5c-0.4-1.1-1-2.1-1.8-3C14.8,2,13.6,1.1,12.3,0.6z M8,12c0.6,0,1,0.4,1,1v2
	c0,0.6-0.4,1-1,1c-0.6,0-1-0.4-1-1v-2C7,12.4,7.4,12,8,12z M8,18c0.6,0,1,0.4,1,1v2c0,0.6-0.4,1-1,1c-0.6,0-1-0.4-1-1v-2
	C7,18.4,7.4,18,8,18z M17,19c0-0.6-0.4-1-1-1s-1,0.4-1,1v2c0,0.6,0.4,1,1,1s1-0.4,1-1V19z M16,12c0.6,0,1,0.4,1,1v2c0,0.6-0.4,1-1,1
	s-1-0.4-1-1v-2C15,12.4,15.4,12,16,12z M13,21c0-0.6-0.4-1-1-1s-1,0.4-1,1v2c0,0.6,0.4,1,1,1s1-0.4,1-1V21z M12,14c0.6,0,1,0.4,1,1
	v2c0,0.6-0.4,1-1,1s-1-0.4-1-1v-2C11,14.4,11.4,14,12,14z"/>
</svg>
