<?xml version="1.0" encoding="utf-8"?>
<!-- Generator: Adobe Illustrator 21.0.0, SVG Export Plug-In . SVG Version: 6.00 Build 0)  -->
<svg version="1.1" id="Layer_1" xmlns="http://www.w3.org/2000/svg" xmlns:xlink="http://www.w3.org/1999/xlink" x="0px" y="0px"
	 viewBox="0 0 24 18" style="enable-background:new 0 0 24 18;" xml:space="preserve">
<path id="Shape" d="M5.9,0.6C7.5,0,9.2-0.1,10.8,0.2s3.2,1.1,4.4,2.3c1,1,1.8,2.2,2.3,3.5H18c1.6,0,3.1,0.6,4.2,1.8
	C23.4,8.9,24,10.4,24,12s-0.6,3.1-1.8,4.2C21.1,17.4,19.6,18,18,18h-6.5c-2.3,0-3.7-0.1-4.8-0.4c-1.1-0.2-1.8-0.6-2.4-1l0,0
	c-1.4-0.9-2.6-2.2-3.3-3.7S0,9.7,0.1,8c0.2-1.7,0.8-3.3,1.8-4.6C2.9,2.2,4.3,1.1,5.9,0.6z M10.4,2.1C9.1,1.9,7.8,2,6.6,2.4
	C5.3,2.9,4.3,3.7,3.5,4.7S2.2,7,2,8.3c-0.1,1.3,0.1,2.6,0.7,3.8s1.5,2.2,2.6,2.8c0.6,0.3,1,0.6,1.8,0.8C8,15.9,9.3,16,11.5,16H18
	c1.1,0,2.1-0.4,2.8-1.2C21.6,14,22,13,22,12s-0.4-2.1-1.2-2.8C20.1,8.4,19.1,8,18,8h-1.3c-0.5,0-0.9-0.3-1-0.8c-0.3-1.3-1-2.4-2-3.3
	C12.9,3,11.7,2.4,10.4,2.1z"/>
</svg>
