<?xml version="1.0" encoding="utf-8"?>
<!-- Generator: Adobe Illustrator 21.0.0, SVG Export Plug-In . SVG Version: 6.00 Build 0)  -->
<svg version="1.1" id="Layer_1" xmlns="http://www.w3.org/2000/svg" xmlns:xlink="http://www.w3.org/1999/xlink" x="0px" y="0px"
	 viewBox="0 0 24 23" style="enable-background:new 0 0 24 23;" xml:space="preserve">
<g>
	<path d="M15,15h-4.1l3-4.4c0.3-0.5,0.2-1.1-0.3-1.4c-0.5-0.3-1.1-0.2-1.4,0.3l-4,6c-0.2,0.3-0.2,0.7,0,1C8.3,16.8,8.6,17,9,17h4.1
		l-3,4.4c-0.3,0.5-0.2,1.1,0.3,1.4c0.5,0.3,1.1,0.2,1.4-0.3l4-6c0.2-0.3,0.2-0.7,0-1C15.7,15.2,15.4,15,15,15z"/>
	<path d="M23.9,10.8c-0.3-1.3-1-2.6-2.1-3.4C20.7,6.5,19.4,6,18,6h-0.5c-0.4-1.1-1-2.1-1.8-3c-0.9-1.1-2.1-1.9-3.5-2.4
		C10.9,0.1,9.5-0.1,8.1,0s-2.8,0.6-4,1.4C2.9,2.2,1.9,3.3,1.2,4.5C0.5,5.7,0.1,7.1,0,8.6c-0.1,1.4,0.2,2.8,0.8,4.1
		C1.4,14,2.3,15.1,3.4,16c0.4,0.3,1.1,0.3,1.4-0.2c0.3-0.4,0.3-1.1-0.2-1.4c-0.9-0.7-1.6-1.6-2-2.6c-0.5-1-0.7-2.1-0.6-3.2
		c0.1-1.1,0.4-2.2,0.9-3.1s1.3-1.8,2.3-2.4s2-1,3.1-1.1s2.2,0,3.3,0.4c1,0.4,2,1,2.7,1.9c0.7,0.8,1.3,1.8,1.5,2.9
		c0.1,0.4,0.5,0.8,1,0.8H18c0.9,0,1.8,0.3,2.5,0.9c0.7,0.6,1.2,1.4,1.4,2.3c0.2,0.9,0.1,1.8-0.4,2.7c-0.4,0.8-1.1,1.5-2,1.8
		c-0.5,0.2-0.7,0.8-0.5,1.3c0.2,0.5,0.8,0.7,1.3,0.5c1.3-0.6,2.3-1.5,2.9-2.7C24,13.5,24.1,12.1,23.9,10.8z"/>
</g>
</svg>
