<?xml version="1.0" encoding="utf-8"?>
<!-- Generator: Adobe Illustrator 21.0.0, SVG Export Plug-In . SVG Version: 6.00 Build 0)  -->
<svg version="1.1" id="Layer_1" xmlns="http://www.w3.org/2000/svg" xmlns:xlink="http://www.w3.org/1999/xlink" x="0px" y="0px"
	 viewBox="0 0 22 22" style="enable-background:new 0 0 22 22;" xml:space="preserve">
<path d="M21.1,6.7c0,0,0-0.1,0-0.1c-1.5-3.5-4.8-6-8.8-6.5c0,0-0.1,0-0.1,0C11.8,0,11.4,0,11,0C7.4,0,4.2,1.7,2.2,4.4
	c0,0-0.1,0.1-0.1,0.1C0.8,6.3,0,8.6,0,11c0,1.5,0.3,3,0.9,4.3c0,0,0,0.1,0,0.1c1.5,3.5,4.8,6,8.8,6.5c0,0,0.1,0,0.1,0
	c0.4,0,0.8,0.1,1.2,0.1c3.6,0,6.8-1.7,8.8-4.4c0,0,0.1-0.1,0.1-0.1c1.3-1.8,2.1-4.1,2.1-6.5C22,9.5,21.7,8,21.1,6.7z M12.7,2.2
	C15.1,2.6,17.2,4,18.5,6h-8.1L12.7,2.2z M14.5,11l-1.7,3H9.3l-1.7-3l1.7-3h3.5L14.5,11z M10.4,2L7.8,6.5c0,0,0,0,0,0L6.4,9L4.2,5.2
	C5.7,3.4,7.9,2.2,10.4,2z M2.5,14C2.2,13.1,2,12,2,11c0-1.4,0.3-2.8,0.9-4l2.6,4.5c0,0,0,0,0,0L7,14H2.5z M9.3,19.8
	C6.9,19.4,4.8,18,3.5,16h8.1L9.3,19.8z M11.6,20l2.6-4.5c0,0,0,0,0,0l1.4-2.5l2.2,3.8C16.3,18.6,14.1,19.8,11.6,20z M19.1,15
	l-2.6-4.5c0,0,0,0,0,0L15,8h4.5c0.3,0.9,0.5,2,0.5,3C20,12.4,19.7,13.8,19.1,15z"/>
</svg>
