<?xml version="1.0" encoding="utf-8"?>
<!-- Generator: Adobe Illustrator 21.0.0, SVG Export Plug-In . SVG Version: 6.00 Build 0)  -->
<svg version="1.1" id="Layer_1" xmlns="http://www.w3.org/2000/svg" xmlns:xlink="http://www.w3.org/1999/xlink" x="0px" y="0px"
	 viewBox="0 0 24 22" style="enable-background:new 0 0 24 22;" xml:space="preserve">
<g>
	<path d="M19.1,11.3l1.4-1.4c0.4-0.4,0.4-1,0-1.4c-0.4-0.4-1-0.4-1.4,0l-1.4,1.4c-0.4,0.4-0.4,1,0,1.4S18.7,11.7,19.1,11.3z"/>
	<path d="M12,11c-1.6,0-3.1,0.6-4.2,1.8C6.6,13.9,6,15.4,6,17c0,0.6,0.4,1,1,1s1-0.4,1-1c0-1.1,0.4-2.1,1.2-2.8
		C9.9,13.4,10.9,13,12,13s2.1,0.4,2.8,1.2c0.8,0.8,1.2,1.8,1.2,2.8c0,0.6,0.4,1,1,1s1-0.4,1-1c0-1.6-0.6-3.1-1.8-4.2
		C15.1,11.6,13.6,11,12,11z"/>
	<path d="M20,17c0,0.6,0.4,1,1,1h2c0.6,0,1-0.4,1-1s-0.4-1-1-1h-2C20.4,16,20,16.4,20,17z"/>
	<path d="M23,20H1c-0.6,0-1,0.4-1,1s0.4,1,1,1h22c0.6,0,1-0.4,1-1S23.6,20,23,20z"/>
	<path d="M1,18h2c0.6,0,1-0.4,1-1s-0.4-1-1-1H1c-0.6,0-1,0.4-1,1S0.4,18,1,18z"/>
	<path d="M8.7,5.7L11,3.4V8c0,0.6,0.4,1,1,1s1-0.4,1-1V3.4l2.3,2.3c0.4,0.4,1,0.4,1.4,0c0.4-0.4,0.4-1,0-1.4l-4-4
		c-0.4-0.4-1-0.4-1.4,0l-4,4c-0.4,0.4-0.4,1,0,1.4C7.7,6.1,8.3,6.1,8.7,5.7z"/>
	<path d="M4.9,11.3c0.4,0.4,1,0.4,1.4,0s0.4-1,0-1.4L4.9,8.5c-0.4-0.4-1-0.4-1.4,0c-0.4,0.4-0.4,1,0,1.4L4.9,11.3z"/>
</g>
</svg>
